<svg xmlns="http://www.w3.org/2000/svg" xmlns:xlink="http://www.w3.org/1999/xlink" width="500" zoomAndPan="magnify" viewBox="0 0 375 374.999991" height="500" preserveAspectRatio="xMidYMid meet" version="1.0"><defs><g/></defs><g fill="#8c52ff" fill-opacity="1"><g transform="translate(46.624387, 179.193766)"><g><path d="M 13.328125 0.53125 C 11.023438 0.53125 9.019531 0.113281 7.3125 -0.71875 C 5.601562 -1.550781 4.285156 -2.710938 3.359375 -4.203125 C 2.429688 -5.703125 1.96875 -7.441406 1.96875 -9.421875 L 5.921875 -9.421875 C 5.921875 -8.191406 6.203125 -7.0625 6.765625 -6.03125 C 7.335938 -5 8.171875 -4.175781 9.265625 -3.5625 C 10.359375 -2.945312 11.710938 -2.640625 13.328125 -2.640625 C 15.453125 -2.640625 17.09375 -3.148438 18.25 -4.171875 C 19.414062 -5.191406 20 -6.460938 20 -7.984375 C 20 -9.242188 19.726562 -10.253906 19.1875 -11.015625 C 18.65625 -11.773438 17.929688 -12.394531 17.015625 -12.875 C 16.109375 -13.351562 15.0625 -13.769531 13.875 -14.125 C 12.695312 -14.488281 11.46875 -14.894531 10.1875 -15.34375 C 7.757812 -16.175781 5.960938 -17.210938 4.796875 -18.453125 C 3.628906 -19.703125 3.046875 -21.328125 3.046875 -23.328125 C 3.015625 -25.003906 3.398438 -26.488281 4.203125 -27.78125 C 5.015625 -29.082031 6.160156 -30.097656 7.640625 -30.828125 C 9.128906 -31.566406 10.890625 -31.9375 12.921875 -31.9375 C 14.921875 -31.9375 16.660156 -31.5625 18.140625 -30.8125 C 19.617188 -30.070312 20.769531 -29.039062 21.59375 -27.71875 C 22.414062 -26.40625 22.84375 -24.910156 22.875 -23.234375 L 18.9375 -23.234375 C 18.9375 -24.097656 18.707031 -24.957031 18.25 -25.8125 C 17.800781 -26.664062 17.117188 -27.359375 16.203125 -27.890625 C 15.296875 -28.429688 14.15625 -28.703125 12.78125 -28.703125 C 11.082031 -28.734375 9.6875 -28.300781 8.59375 -27.40625 C 7.5 -26.507812 6.953125 -25.269531 6.953125 -23.6875 C 6.953125 -22.34375 7.332031 -21.3125 8.09375 -20.59375 C 8.851562 -19.875 9.921875 -19.28125 11.296875 -18.8125 C 12.679688 -18.351562 14.269531 -17.820312 16.0625 -17.21875 C 17.550781 -16.6875 18.894531 -16.0625 20.09375 -15.34375 C 21.289062 -14.625 22.222656 -13.695312 22.890625 -12.5625 C 23.566406 -11.425781 23.90625 -9.972656 23.90625 -8.203125 C 23.90625 -6.710938 23.515625 -5.300781 22.734375 -3.96875 C 21.960938 -2.632812 20.789062 -1.550781 19.21875 -0.71875 C 17.644531 0.113281 15.679688 0.53125 13.328125 0.53125 Z M 13.328125 0.53125 "/></g></g></g><g fill="#8c52ff" fill-opacity="1"><g transform="translate(79.497967, 179.193766)"><g><path d="M 10.671875 0 L 10.671875 -28.3125 L 1.296875 -28.3125 L 1.296875 -31.40625 L 23.828125 -31.40625 L 23.828125 -28.3125 L 14.4375 -28.3125 L 14.4375 0 Z M 10.671875 0 "/></g></g></g><g fill="#8c52ff" fill-opacity="1"><g transform="translate(111.564394, 179.193766)"><g><path d="M 3.3125 0 L 3.3125 -31.40625 L 13.453125 -31.40625 C 15.910156 -31.40625 17.914062 -31 19.46875 -30.1875 C 21.019531 -29.382812 22.171875 -28.28125 22.921875 -26.875 C 23.671875 -25.46875 24.046875 -23.910156 24.046875 -22.203125 C 24.046875 -20.234375 23.515625 -18.453125 22.453125 -16.859375 C 21.390625 -15.273438 19.738281 -14.15625 17.5 -13.5 L 24.359375 0 L 19.921875 0 L 13.546875 -12.96875 L 7.09375 -12.96875 L 7.09375 0 Z M 7.09375 -15.921875 L 13.1875 -15.921875 C 15.613281 -15.921875 17.378906 -16.503906 18.484375 -17.671875 C 19.585938 -18.835938 20.140625 -20.332031 20.140625 -22.15625 C 20.140625 -24.007812 19.59375 -25.484375 18.5 -26.578125 C 17.40625 -27.671875 15.617188 -28.21875 13.140625 -28.21875 L 7.09375 -28.21875 Z M 7.09375 -15.921875 "/></g></g></g><g fill="#8c52ff" fill-opacity="1"><g transform="translate(145.110615, 179.193766)"><g><path d="M 11.125 0 L 11.125 -11.9375 L 0.890625 -31.40625 L 5.15625 -31.40625 L 13.015625 -15.515625 L 20.859375 -31.40625 L 25.078125 -31.40625 L 14.890625 -11.9375 L 14.890625 0 Z M 11.125 0 "/></g></g></g><g fill="#8c52ff" fill-opacity="1"><g transform="translate(178.029057, 179.193766)"><g><path d="M 3.3125 0 L 3.3125 -31.40625 L 7.71875 -31.40625 L 19.015625 -9.515625 L 30.234375 -31.40625 L 34.671875 -31.40625 L 34.671875 0 L 30.90625 0 L 30.90625 -24.671875 L 20.40625 -4.484375 L 17.578125 -4.484375 L 7.09375 -24.625 L 7.09375 0 Z M 3.3125 0 "/></g></g></g><g fill="#ffffff" fill-opacity="1"><g transform="translate(142.412894, 223.748648)"><g><path d="M 2.96875 0 L 2.96875 -28.0625 L 6.890625 -28.0625 L 17 -8.5 L 27.015625 -28.0625 L 31 -28.0625 L 31 0 L 27.625 0 L 27.625 -22.046875 L 18.25 -4.015625 L 15.71875 -4.015625 L 6.328125 -22.015625 L 6.328125 0 Z M 2.96875 0 "/></g></g></g><g fill="#ffffff" fill-opacity="1"><g transform="translate(182.59139, 223.748648)"><g><path d="M 15.71875 0.484375 C 12.96875 0.484375 10.554688 -0.125 8.484375 -1.34375 C 6.410156 -2.5625 4.789062 -4.265625 3.625 -6.453125 C 2.46875 -8.648438 1.890625 -11.175781 1.890625 -14.03125 C 1.890625 -16.894531 2.46875 -19.414062 3.625 -21.59375 C 4.789062 -23.769531 6.410156 -25.472656 8.484375 -26.703125 C 10.554688 -27.929688 12.96875 -28.546875 15.71875 -28.546875 C 18.5 -28.546875 20.921875 -27.929688 22.984375 -26.703125 C 25.054688 -25.472656 26.664062 -23.769531 27.8125 -21.59375 C 28.96875 -19.414062 29.546875 -16.894531 29.546875 -14.03125 C 29.546875 -11.175781 28.96875 -8.648438 27.8125 -6.453125 C 26.664062 -4.265625 25.054688 -2.5625 22.984375 -1.34375 C 20.921875 -0.125 18.5 0.484375 15.71875 0.484375 Z M 15.71875 -2.484375 C 17.769531 -2.484375 19.578125 -2.941406 21.140625 -3.859375 C 22.710938 -4.785156 23.929688 -6.109375 24.796875 -7.828125 C 25.660156 -9.554688 26.09375 -11.625 26.09375 -14.03125 C 26.09375 -16.4375 25.660156 -18.492188 24.796875 -20.203125 C 23.929688 -21.910156 22.710938 -23.226562 21.140625 -24.15625 C 19.578125 -25.082031 17.769531 -25.546875 15.71875 -25.546875 C 13.65625 -25.546875 11.84375 -25.082031 10.28125 -24.15625 C 8.71875 -23.226562 7.5 -21.910156 6.625 -20.203125 C 5.757812 -18.492188 5.328125 -16.4375 5.328125 -14.03125 C 5.328125 -11.625 5.757812 -9.554688 6.625 -7.828125 C 7.5 -6.109375 8.71875 -4.785156 10.28125 -3.859375 C 11.84375 -2.941406 13.65625 -2.484375 15.71875 -2.484375 Z M 15.71875 -2.484375 "/></g></g></g><g fill="#ffffff" fill-opacity="1"><g transform="translate(220.243726, 223.748648)"><g><path d="M 11.421875 0 L 0.875 -28.0625 L 4.53125 -28.0625 L 13.390625 -3.5625 L 22.328125 -28.0625 L 25.90625 -28.0625 L 15.359375 0 Z M 11.421875 0 "/></g></g></g><g fill="#ffffff" fill-opacity="1"><g transform="translate(253.244709, 223.748648)"><g><path d="M 2.96875 0 L 2.96875 -28.0625 L 6.328125 -28.0625 L 6.328125 0 Z M 2.96875 0 "/></g></g></g><g fill="#ffffff" fill-opacity="1"><g transform="translate(268.763053, 223.748648)"><g><path d="M 2.96875 0 L 2.96875 -28.0625 L 20.328125 -28.0625 L 20.328125 -25.296875 L 6.328125 -25.296875 L 6.328125 -15.515625 L 19.125 -15.515625 L 19.125 -12.796875 L 6.328125 -12.796875 L 6.328125 -2.765625 L 20.328125 -2.765625 L 20.328125 0 Z M 2.96875 0 "/></g></g></g><g fill="#ffffff" fill-opacity="1"><g transform="translate(297.593876, 223.748648)"><g><path d="M 11.90625 0.484375 C 9.851562 0.484375 8.0625 0.109375 6.53125 -0.640625 C 5.007812 -1.390625 3.832031 -2.429688 3 -3.765625 C 2.175781 -5.109375 1.765625 -6.660156 1.765625 -8.421875 L 5.296875 -8.421875 C 5.296875 -7.328125 5.546875 -6.316406 6.046875 -5.390625 C 6.554688 -4.472656 7.300781 -3.738281 8.28125 -3.1875 C 9.257812 -2.632812 10.46875 -2.359375 11.90625 -2.359375 C 13.800781 -2.359375 15.269531 -2.8125 16.3125 -3.71875 C 17.351562 -4.632812 17.875 -5.773438 17.875 -7.140625 C 17.875 -8.265625 17.632812 -9.164062 17.15625 -9.84375 C 16.675781 -10.519531 16.03125 -11.070312 15.21875 -11.5 C 14.40625 -11.925781 13.46875 -12.300781 12.40625 -12.625 C 11.351562 -12.945312 10.25 -13.3125 9.09375 -13.71875 C 6.9375 -14.457031 5.332031 -15.378906 4.28125 -16.484375 C 3.238281 -17.597656 2.71875 -19.050781 2.71875 -20.84375 C 2.695312 -22.34375 3.046875 -23.671875 3.765625 -24.828125 C 4.484375 -25.992188 5.503906 -26.90625 6.828125 -27.5625 C 8.160156 -28.21875 9.734375 -28.546875 11.546875 -28.546875 C 13.335938 -28.546875 14.894531 -28.210938 16.21875 -27.546875 C 17.539062 -26.878906 18.566406 -25.957031 19.296875 -24.78125 C 20.035156 -23.601562 20.421875 -22.265625 20.453125 -20.765625 L 16.921875 -20.765625 C 16.921875 -21.546875 16.71875 -22.316406 16.3125 -23.078125 C 15.914062 -23.835938 15.304688 -24.457031 14.484375 -24.9375 C 13.671875 -25.414062 12.648438 -25.65625 11.421875 -25.65625 C 9.898438 -25.6875 8.648438 -25.300781 7.671875 -24.5 C 6.703125 -23.695312 6.21875 -22.585938 6.21875 -21.171875 C 6.21875 -19.960938 6.554688 -19.035156 7.234375 -18.390625 C 7.921875 -17.753906 8.878906 -17.226562 10.109375 -16.8125 C 11.335938 -16.40625 12.753906 -15.929688 14.359375 -15.390625 C 15.691406 -14.910156 16.890625 -14.347656 17.953125 -13.703125 C 19.023438 -13.066406 19.863281 -12.238281 20.46875 -11.21875 C 21.070312 -10.207031 21.375 -8.914062 21.375 -7.34375 C 21.375 -6 21.023438 -4.734375 20.328125 -3.546875 C 19.628906 -2.359375 18.578125 -1.390625 17.171875 -0.640625 C 15.773438 0.109375 14.019531 0.484375 11.90625 0.484375 Z M 11.90625 0.484375 "/></g></g></g></svg>